<svg id="visual" viewBox="0 0 1920 1080" width="1920" height="1080" xmlns="http://www.w3.org/2000/svg" xmlns:xlink="http://www.w3.org/1999/xlink" version="1.1"><rect x="0" y="0" width="1920" height="1080" fill="#ffffff"></rect><path d="M0 791L45.7 800.7C91.3 810.3 182.7 829.7 274.2 828.3C365.7 827 457.3 805 548.8 806.5C640.3 808 731.7 833 823 827.2C914.3 821.3 1005.7 784.7 1097 765.3C1188.3 746 1279.7 744 1371.2 756.2C1462.7 768.3 1554.3 794.7 1645.8 801.3C1737.3 808 1828.7 795 1874.3 788.5L1920 782L1920 1081L1874.3 1081C1828.7 1081 1737.3 1081 1645.8 1081C1554.3 1081 1462.7 1081 1371.2 1081C1279.7 1081 1188.3 1081 1097 1081C1005.7 1081 914.3 1081 823 1081C731.7 1081 640.3 1081 548.8 1081C457.3 1081 365.7 1081 274.2 1081C182.7 1081 91.3 1081 45.7 1081L0 1081Z" fill="#dadde5"></path><path d="M0 843L45.7 836.7C91.3 830.3 182.7 817.7 274.2 815.8C365.7 814 457.3 823 548.8 822.7C640.3 822.3 731.7 812.7 823 803.2C914.3 793.7 1005.7 784.3 1097 788.5C1188.3 792.7 1279.7 810.3 1371.2 828.8C1462.7 847.3 1554.3 866.7 1645.8 854.7C1737.3 842.7 1828.7 799.3 1874.3 777.7L1920 756L1920 1081L1874.3 1081C1828.7 1081 1737.3 1081 1645.8 1081C1554.3 1081 1462.7 1081 1371.2 1081C1279.7 1081 1188.3 1081 1097 1081C1005.7 1081 914.3 1081 823 1081C731.7 1081 640.3 1081 548.8 1081C457.3 1081 365.7 1081 274.2 1081C182.7 1081 91.3 1081 45.7 1081L0 1081Z" fill="#c6cdd6"></path><path d="M0 899L45.7 886C91.3 873 182.7 847 274.2 840.7C365.7 834.3 457.3 847.7 548.8 853.2C640.3 858.7 731.7 856.3 823 857.7C914.3 859 1005.7 864 1097 861.8C1188.3 859.7 1279.7 850.3 1371.2 853.2C1462.7 856 1554.3 871 1645.8 874.2C1737.3 877.3 1828.7 868.7 1874.3 864.3L1920 860L1920 1081L1874.3 1081C1828.7 1081 1737.3 1081 1645.8 1081C1554.3 1081 1462.7 1081 1371.2 1081C1279.7 1081 1188.3 1081 1097 1081C1005.7 1081 914.3 1081 823 1081C731.7 1081 640.3 1081 548.8 1081C457.3 1081 365.7 1081 274.2 1081C182.7 1081 91.3 1081 45.7 1081L0 1081Z" fill="#b1bdc7"></path><path d="M0 903L45.7 910.3C91.3 917.7 182.7 932.3 274.2 934.3C365.7 936.3 457.3 925.7 548.8 925.2C640.3 924.7 731.7 934.3 823 924C914.3 913.7 1005.7 883.3 1097 875.5C1188.3 867.7 1279.7 882.3 1371.2 888.5C1462.7 894.7 1554.3 892.3 1645.8 894C1737.3 895.7 1828.7 901.3 1874.3 904.2L1920 907L1920 1081L1874.3 1081C1828.7 1081 1737.3 1081 1645.8 1081C1554.3 1081 1462.7 1081 1371.2 1081C1279.7 1081 1188.3 1081 1097 1081C1005.7 1081 914.3 1081 823 1081C731.7 1081 640.3 1081 548.8 1081C457.3 1081 365.7 1081 274.2 1081C182.7 1081 91.3 1081 45.7 1081L0 1081Z" fill="#9caeb7"></path><path d="M0 899L45.7 898.8C91.3 898.7 182.7 898.3 274.2 911.2C365.7 924 457.3 950 548.8 955.8C640.3 961.7 731.7 947.3 823 936.7C914.3 926 1005.7 919 1097 912.8C1188.3 906.7 1279.7 901.3 1371.2 911.3C1462.7 921.3 1554.3 946.7 1645.8 955.3C1737.3 964 1828.7 956 1874.3 952L1920 948L1920 1081L1874.3 1081C1828.7 1081 1737.3 1081 1645.8 1081C1554.3 1081 1462.7 1081 1371.2 1081C1279.7 1081 1188.3 1081 1097 1081C1005.7 1081 914.3 1081 823 1081C731.7 1081 640.3 1081 548.8 1081C457.3 1081 365.7 1081 274.2 1081C182.7 1081 91.3 1081 45.7 1081L0 1081Z" fill="#879fa6"></path><path d="M0 990L45.7 985.3C91.3 980.7 182.7 971.3 274.2 970.8C365.7 970.3 457.3 978.7 548.8 984.5C640.3 990.3 731.7 993.7 823 996.3C914.3 999 1005.7 1001 1097 993.7C1188.3 986.3 1279.7 969.7 1371.2 970.3C1462.7 971 1554.3 989 1645.8 989C1737.3 989 1828.7 971 1874.3 962L1920 953L1920 1081L1874.3 1081C1828.7 1081 1737.3 1081 1645.8 1081C1554.3 1081 1462.7 1081 1371.2 1081C1279.7 1081 1188.3 1081 1097 1081C1005.7 1081 914.3 1081 823 1081C731.7 1081 640.3 1081 548.8 1081C457.3 1081 365.7 1081 274.2 1081C182.7 1081 91.3 1081 45.7 1081L0 1081Z" fill="#749194"></path><path d="M0 1051L45.7 1049.3C91.3 1047.7 182.7 1044.3 274.2 1036.8C365.7 1029.3 457.3 1017.7 548.8 1019.7C640.3 1021.7 731.7 1037.3 823 1035.8C914.3 1034.3 1005.7 1015.7 1097 1007.5C1188.3 999.3 1279.7 1001.7 1371.2 1008.2C1462.7 1014.7 1554.3 1025.3 1645.8 1033.2C1737.3 1041 1828.7 1046 1874.3 1048.5L1920 1051L1920 1081L1874.3 1081C1828.7 1081 1737.3 1081 1645.8 1081C1554.3 1081 1462.7 1081 1371.2 1081C1279.7 1081 1188.3 1081 1097 1081C1005.7 1081 914.3 1081 823 1081C731.7 1081 640.3 1081 548.8 1081C457.3 1081 365.7 1081 274.2 1081C182.7 1081 91.3 1081 45.7 1081L0 1081Z" fill="#628281"></path></svg>